<?xml version='1.0' encoding='iso-8859-1'?>
<svg version="1.1" xmlns="http://www.w3.org/2000/svg" viewBox="0 0 470 470" xmlns:xlink="http://www.w3.org/1999/xlink" enable-background="new 0 0 470 470">
  <g>
    <path d="m462.5,22.5h-455c-4.143,0-7.5,3.358-7.5,7.5v410c0,4.142 3.357,7.5 7.5,7.5h455c4.143,0 7.5-3.358 7.5-7.5v-80c0-4.142-3.357-7.5-7.5-7.5s-7.5,3.358-7.5,7.5v72.5h-440v-335h440v232.5c0,4.142 3.357,7.5 7.5,7.5s7.5-3.358 7.5-7.5v-300c0-4.142-3.357-7.5-7.5-7.5zm-447.5,15h277.5v45h-277.5v-45zm292.5,45v-45h147.5v45h-147.5z"/>
    <path d="m381.5,52c-4.411,0-8,3.589-8,8s3.589,8 8,8 8-3.589 8-8-3.589-8-8-8z"/>
    <path d="m340.5,52c-4.411,0-8,3.589-8,8s3.589,8 8,8 8-3.589 8-8-3.589-8-8-8z"/>
    <path d="m422.5,52c-4.411,0-8,3.589-8,8s3.589,8 8,8 8-3.589 8-8-3.589-8-8-8z"/>
    <path d="m396.079,273.797h-109.172c0.355-2.68 0.548-5.416 0.548-8.202 0-9.185-2.008-17.864-5.552-25.563h44.4c4.143,0 7.5-3.358 7.5-7.5s-3.357-7.5-7.5-7.5h-54.365c-7.809-8.453-18.037-14.246-29.437-16.034v-53.586c0-4.142-3.357-7.5-7.5-7.5s-7.5,3.358-7.5,7.5v53.588c-11.401,1.788-21.629,7.581-29.437,16.034h-54.365c-4.143,0-7.5,3.358-7.5,7.5s3.357,7.5 7.5,7.5h44.4c-3.544,7.699-5.552,16.378-5.552,25.563 0,2.785 0.193,5.522 0.548,8.202h-109.174c-4.143,0-7.5,3.358-7.5,7.5s3.357,7.5 7.5,7.5h48.905c-1.16,2.823-1.804,5.909-1.804,9.145 0,13.313 10.831,24.145 24.145,24.145s24.146-10.831 24.146-24.145c0-3.236-0.644-6.322-1.804-9.145h19.566c8.179,20.003 26.577,33.988 47.927,33.988s39.748-13.985 47.927-33.988h19.566c-1.16,2.823-1.804,5.909-1.804,9.145 0,13.313 10.832,24.145 24.146,24.145s24.145-10.831 24.145-24.145c0-3.236-0.644-6.322-1.804-9.145h48.905c4.143,0 7.5-3.358 7.5-7.5s-3.361-7.502-7.504-7.502zm-241.767,24.145c0,5.042-4.103,9.145-9.146,9.145-5.042,0-9.145-4.102-9.145-9.145s4.103-9.145 9.145-9.145c5.043,0 9.146,4.103 9.146,9.145zm80.688,9.844c-20.652,0-37.455-18.926-37.455-42.19s16.803-42.19 37.455-42.19 37.455,18.926 37.455,42.19-16.803,42.19-37.455,42.19zm98.979-9.844c0,5.042-4.103,9.145-9.145,9.145-5.043,0-9.146-4.102-9.146-9.145s4.103-9.145 9.146-9.145c5.042,0 9.145,4.103 9.145,9.145z"/>
    <path d="m244.836,243.409h-19.674c-4.143,0-7.5,3.358-7.5,7.5s3.357,7.5 7.5,7.5h19.674c4.143,0 7.5-3.358 7.5-7.5s-3.357-7.5-7.5-7.5z"/>
    <path d="m396.079,347.786h-322.158c-4.143,0-7.5,3.358-7.5,7.5s3.357,7.5 7.5,7.5h322.158c4.143,0 7.5-3.358 7.5-7.5s-3.357-7.5-7.5-7.5z"/>
  </g>
</svg>
