<?xml version='1.0' encoding='iso-8859-1'?>
<svg version="1.1" xmlns="http://www.w3.org/2000/svg" viewBox="0 0 470 470" xmlns:xlink="http://www.w3.org/1999/xlink" enable-background="new 0 0 470 470">
  <g>
    <path d="m344.48,208.15c-2.026-1.399-4.611-1.718-6.915-0.846l-55.348,20.913v-50.516h57.999c2.776,0 5.325-1.533 6.625-3.985 1.301-2.453 1.141-5.423-0.416-7.721l-34.208-50.495v-36.262c0-4.143-3.358-7.5-7.5-7.5s-7.5,3.357-7.5,7.5v38.562c0,1.5 0.45,2.965 1.291,4.206l27.568,40.694h-43.859v-37.772c0-28.378-23.086-51.465-51.464-51.465h-2.924c-1.909-13.804-8.997-25.977-19.247-34.471l18.485-27.285c2.323-3.43 1.426-8.093-2.003-10.416-3.43-2.323-8.092-1.426-10.416,2.002l-18.837,27.805c-6.721-2.97-14.144-4.633-21.952-4.633-7.694,0-15.136,1.598-21.969,4.609l-18.821-27.781c-2.324-3.428-6.988-4.325-10.416-2.002-3.429,2.323-4.326,6.986-2.003,10.416l18.471,27.264c-1.31,1.088-2.58,2.237-3.799,3.456-8.503,8.503-13.84,19.324-15.443,31.036h-2.915c-28.377,0-51.464,23.087-51.464,51.465v37.772h-43.86l27.568-40.694c0.841-1.241 1.291-2.706 1.291-4.206v-38.562c0-4.143-3.358-7.5-7.5-7.5s-7.5,3.357-7.5,7.5v36.262l-34.208,50.494c-1.557,2.298-1.717,5.268-0.416,7.721 1.301,2.452 3.85,3.985 6.625,3.985h57.999v50.516l-55.348-20.913c-2.305-0.872-4.889-0.555-6.915,0.846-2.026,1.401-3.236,3.708-3.236,6.171v31.937c0,4.143 3.358,7.5 7.5,7.5s7.5-3.357 7.5-7.5v-21.085l50.499,19.08v32.424h-57.999c-2.314,0-4.5,1.068-5.92,2.896s-1.918,4.208-1.349,6.451l35.268,138.854v37.623c0,4.143 3.358,7.5 7.5,7.5s7.5-3.357 7.5-7.5v-38.563c0-0.623-0.078-1.243-0.231-1.847l-33.125-130.415h48.356v17.612c0,39.118 18.408,74.581 53.232,102.553 25.901,20.804 51.523,30.095 52.602,30.48 0.816,0.292 1.67,0.438 2.524,0.438s1.708-0.146 2.524-0.438c1.078-0.386 26.701-9.677 52.602-30.48 34.825-27.972 53.233-63.435 53.233-102.553v-17.612h48.356l-33.125,130.416c-0.153,0.604-0.231,1.224-0.231,1.847v38.562c0,4.143 3.358,7.5 7.5,7.5s7.5-3.357 7.5-7.5v-37.625l35.269-138.854c0.57-2.243 0.072-4.624-1.349-6.451s-3.606-2.896-5.92-2.896h-58v-32.424l50.499-19.08v21.085c0,4.143 3.358,7.5 7.5,7.5s7.5-3.357 7.5-7.5v-31.935c-5.68434e-14-2.463-1.209-4.77-3.235-6.17zm-263.981-83.222c-2.84217e-14-20.106 16.357-36.465 36.464-36.465h19.896c4.142,0 7.5-3.357 7.5-7.5s-3.358-7.5-7.5-7.5h-1.788c1.471-7.693 5.196-14.769 10.857-20.43 7.46-7.46 17.379-11.568 27.93-11.568 19.215,0 35.261,13.794 38.776,31.998h-45.775c-4.142,0-7.5,3.357-7.5,7.5s3.358,7.5 7.5,7.5h63.894c20.106,0 36.464,16.358 36.464,36.465v45.272c0,20.106-16.357,36.464-36.464,36.464h-26.723c-11.879,0-22.834,5.329-30.171,14.063-7.337-8.733-18.292-14.063-30.171-14.063h-26.724c-20.106,0-36.464-16.357-36.464-36.464v-45.272zm186.716,184.359c0,34.774-15.91,65.251-47.288,90.586-19.457,15.709-39.213,24.529-46.071,27.332-6.864-2.806-26.618-11.626-46.071-27.332-31.378-25.335-47.288-55.812-47.288-90.586v-102.808c9.326,9.373 22.228,15.185 36.464,15.185h26.724c10.047,0 19.01,6.165 22.671,15.44v165.446c0,4.143 3.358,7.5 7.5,7.5s7.5-3.357 7.5-7.5v-165.446c3.662-9.275 12.624-15.44 22.671-15.44h26.723c14.236,0 27.138-5.812 36.464-15.185v102.808z"/>
    <path d="m415.949,257.5c-4.142,0-7.5,3.357-7.5,7.5v157.244c0,4.143 3.358,7.5 7.5,7.5s7.5-3.357 7.5-7.5v-157.244c0-4.142-3.358-7.5-7.5-7.5z"/>
    <path d="m470,235c0-4.143-3.358-7.5-7.5-7.5h-26.172v-122.533l12.494-17.699c0.893-1.266 1.373-2.776 1.373-4.325v-75.443c0-4.143-3.358-7.5-7.5-7.5h-53.485c-4.142,0-7.5,3.357-7.5,7.5v75.442c0,1.549 0.479,3.06 1.373,4.325l12.494,17.699v122.534h-26.178c-4.142,0-7.5,3.357-7.5,7.5 0,3.711 2.697,6.784 6.236,7.385l.012,179.762c-0.021,12.755 4.935,24.759 13.955,33.799 9.036,9.056 21.05,14.047 33.835,14.054 12.79,0 24.809-4.979 33.842-14.022 9.026-9.036 13.996-21.05 13.992-33.824l-.005-179.768c3.537-0.602 6.234-3.675 6.234-7.386zm-60.797-136.738l-12.493-17.699v-65.563h38.484v65.563l-12.494,17.699c-0.893,1.266-1.373,2.776-1.373,4.325v124.913h-10.752v-124.913c0.001-1.549-0.479-3.059-1.372-4.325zm29.963,347.115c-6.199,6.205-14.449,9.623-23.226,9.623-8.771-0.005-17.018-3.431-23.221-9.648-6.188-6.202-9.588-14.434-9.573-23.192l-.012-179.66h65.631l.005,179.655c0.003,8.773-3.408,17.019-9.604,23.222z"/>
  </g>
</svg>
