<?xml version='1.0' encoding='iso-8859-1'?>
<svg version="1.1" xmlns="http://www.w3.org/2000/svg" viewBox="0 0 470 470" xmlns:xlink="http://www.w3.org/1999/xlink" enable-background="new 0 0 470 470">
  <g>
    <path d="m467.804,435.984l-58.542-58.543c-1.407-1.406-3.314-2.196-5.304-2.196s-3.896,0.79-5.304,2.196l-5.303,5.303-10.844-10.844c14.635-17.059 23.491-39.214 23.491-63.401 0-53.762-43.738-97.5-97.5-97.5s-97.5,43.738-97.5,97.5 43.738,97.5 97.5,97.5c24.187,0 46.342-8.856 63.401-23.491l10.844,10.844-5.303,5.303c-1.406,1.407-2.196,3.314-2.196,5.304s0.79,3.896 2.196,5.304l58.543,58.542c1.465,1.464 3.385,2.196 5.304,2.196s3.839-0.732 5.304-2.196l21.213-21.213c2.928-2.931 2.928-7.679 0-10.608zm-241.806-127.486c0-45.49 37.01-82.5 82.5-82.5s82.5,37.01 82.5,82.5-37.01,82.5-82.5,82.5-82.5-37.01-82.5-82.5zm215.289,143.396l-47.937-47.936 10.607-10.607 47.936,47.937-10.606,10.606z"/>
    <path d="m229.219,390.998h-214.219v-45h177.295c4.143,0 7.5-3.357 7.5-7.5s-3.357-7.5-7.5-7.5h-177.295v-315.998h196.411v82.087c0,4.143 3.357,7.5 7.5,7.5h82.087v83.911c0,4.143 3.357,7.5 7.5,7.5s7.5-3.357 7.5-7.5v-91.411c0-0.251-0.013-0.501-0.038-0.749-0.018-0.184-0.05-0.364-0.081-0.544-0.011-0.061-0.016-0.123-0.028-0.183-0.043-0.218-0.099-0.431-0.161-0.642-0.006-0.022-0.01-0.045-0.017-0.067-0.066-0.216-0.143-0.426-0.227-0.633-0.007-0.018-0.013-0.038-0.02-0.056-0.081-0.195-0.173-0.385-0.27-0.572-0.016-0.031-0.028-0.063-0.045-0.093-0.091-0.169-0.192-0.332-0.295-0.493-0.029-0.046-0.054-0.094-0.084-0.139-0.099-0.148-0.208-0.288-0.317-0.428-0.042-0.053-0.078-0.11-0.121-0.162-0.12-0.146-0.25-0.284-0.381-0.421-0.038-0.04-0.071-0.083-0.11-0.122l-89.588-89.587c-0.039-0.039-0.082-0.072-0.122-0.11-0.137-0.131-0.275-0.261-0.421-0.381-0.052-0.043-0.109-0.08-0.162-0.121-0.14-0.109-0.281-0.218-0.428-0.317-0.045-0.03-0.093-0.055-0.139-0.084-0.161-0.103-0.324-0.204-0.493-0.295-0.03-0.016-0.062-0.029-0.093-0.045-0.187-0.097-0.376-0.189-0.572-0.27-0.018-0.008-0.037-0.013-0.056-0.02-0.207-0.084-0.417-0.161-0.633-0.227-0.022-0.007-0.045-0.011-0.067-0.017-0.211-0.062-0.424-0.118-0.642-0.161-0.06-0.012-0.122-0.017-0.183-0.028-0.18-0.031-0.36-0.063-0.544-0.081-0.248-0.026-0.498-0.039-0.749-0.039h-211.411c-4.143,0-7.5,3.358-7.5,7.5v390.998c0,4.143 3.357,7.5 7.5,7.5h221.719c4.143,0 7.5-3.357 7.5-7.5s-3.358-7.5-7.5-7.5zm-2.808-365.391l63.98,63.98h-63.98v-63.98z"/>
    <path d="m270.998,127.087v65.208c0,4.143 3.357,7.5 7.5,7.5s7.5-3.357 7.5-7.5v-65.208c0-4.143-3.357-7.5-7.5-7.5s-7.5,3.357-7.5,7.5z"/>
    <path d="m196.411,37.5c0-4.143-3.357-7.5-7.5-7.5h-151.411c-4.143,0-7.5,3.357-7.5,7.5v270.998c0,4.143 3.357,7.5 7.5,7.5s7.5-3.357 7.5-7.5v-263.498h143.911c4.143,0 7.5-3.357 7.5-7.5z"/>
    <path d="m308.498,240.998c-37.22,0-67.5,30.28-67.5,67.5s30.28,67.5 67.5,67.5 67.5-30.28 67.5-67.5-30.28-67.5-67.5-67.5zm0,120c-28.948,0-52.5-23.552-52.5-52.5s23.552-52.5 52.5-52.5 52.5,23.552 52.5,52.5-23.552,52.5-52.5,52.5z"/>
    <path d="m30,368.498c0,4.143 3.357,7.5 7.5,7.5h167.105c4.143,0 7.5-3.357 7.5-7.5s-3.357-7.5-7.5-7.5h-167.105c-4.143,0-7.5,3.358-7.5,7.5z"/>
    <path d="m234.717,211.319v-84.085c0-0.031 0-0.146 0-0.146 0-0.067-0.008-0.133-0.01-0.199-0.005-0.166-0.01-0.331-0.025-0.497-0.011-0.123-0.031-0.244-0.049-0.365-0.017-0.119-0.031-0.238-0.055-0.357-0.032-0.166-0.074-0.328-0.116-0.49-0.017-0.063-0.027-0.127-0.045-0.19-0.067-0.218-0.129-0.389-0.194-0.559-0.025-0.066-0.046-0.133-0.072-0.198-0.061-0.147-0.13-0.288-0.2-0.43-0.041-0.085-0.079-0.172-0.123-0.255-0.053-0.098-0.114-0.192-0.171-0.287-0.07-0.119-0.138-0.239-0.214-0.353-0.03-0.044-0.064-0.086-0.095-0.129-0.39-0.554-0.845-1.051-1.358-1.474-0.021-0.017-0.044-0.032-0.065-0.049-0.164-0.132-0.33-0.26-0.504-0.377-0.091-0.062-0.188-0.115-0.283-0.173-0.109-0.067-0.215-0.137-0.326-0.198-0.124-0.068-0.255-0.126-0.383-0.187-0.089-0.042-0.175-0.089-0.265-0.128-0.116-0.05-0.238-0.09-0.357-0.134-0.11-0.041-0.219-0.085-0.331-0.121-0.091-0.029-0.186-0.049-0.279-0.075-0.147-0.04-0.293-0.082-0.442-0.114-0.066-0.014-0.134-0.021-0.201-0.034-0.18-0.033-0.361-0.063-0.545-0.083-0.052-0.006-0.106-0.006-0.159-0.011-0.198-0.017-0.396-0.029-0.597-0.03-0.094-0.002-0.149,0.005-0.206,0.007-0.177,0.004-0.354,0.01-0.532,0.027-0.117,0.011-0.232,0.03-0.348,0.046-0.124,0.018-0.248,0.033-0.372,0.057-0.165,0.032-0.326,0.073-0.488,0.116-0.064,0.017-0.127,0.027-0.191,0.045l-.108,.031c-0.033,0.01-77.992,22.74-77.992,22.74v-23.964l43.993-12.827c3.977-1.159 6.26-5.323 5.101-9.3-1.159-3.976-5.318-6.261-9.3-5.101l-49.394,14.401c-3.2,0.933-5.4,3.866-5.4,7.2v39.443c0,0.031 0,59.963 0,59.963-5.148-2.966-11.282-4.696-17.868-4.696-18.124,0-32.868,13.059-32.868,29.11 0,16.051 14.744,29.109 32.868,29.109s32.868-13.059 32.868-29.109v-78.606l72.699-21.197v49.818c-5.148-2.966-11.282-4.696-17.868-4.696-18.124,0-32.868,13.059-32.868,29.11 0,16.051 14.744,29.109 32.868,29.109s32.87-13.057 32.87-29.108zm-120.568,39.68c-9.853,0-17.868-6.329-17.868-14.109s8.016-14.11 17.868-14.11 17.868,6.33 17.868,14.11-8.015,14.109-17.868,14.109zm87.7-25.57c-9.853,0-17.868-6.329-17.868-14.109s8.016-14.11 17.868-14.11 17.868,6.33 17.868,14.11-8.016,14.109-17.868,14.109z"/>
  </g>
</svg>
