<?xml version='1.0' encoding='iso-8859-1'?>
<svg version="1.1" xmlns="http://www.w3.org/2000/svg" viewBox="0 0 470.465 470.465" xmlns:xlink="http://www.w3.org/1999/xlink" enable-background="new 0 0 470.465 470.465">
  <g>
    <path d="m363.905,127.232c-78.652,0-106.56,51.124-106.56,94.904v153.191c0,43.78 27.908,94.904 106.56,94.904s106.56-51.124 106.56-94.904v-153.19c0-43.781-27.908-94.905-106.56-94.905zm91.56,248.096c0,9.209-1.77,32.705-18.162,51.934-15.822,18.56-40.517,27.971-73.398,27.971s-57.576-9.411-73.398-27.971c-16.393-19.229-18.162-42.725-18.162-51.934v-153.191c0-9.209 1.77-32.705 18.162-51.934 15.822-18.56 40.517-27.971 73.398-27.971s57.576,9.411 73.398,27.971c16.393,19.229 18.162,42.725 18.162,51.934v153.191z"/>
    <path d="m299.375,15.232c31.446,0 57.03,25.584 57.03,57.03v32.47c0,4.143 3.358,7.5 7.5,7.5s7.5-3.357 7.5-7.5v-32.47c0-39.718-32.313-72.03-72.03-72.03-39.718,0-72.03,32.141-72.03,71.647v199.705c0,31.235-25.583,56.647-57.03,56.647-31.447,0-57.03-25.584-57.03-57.03v-59.669c54.843-3.861 98.285-49.708 98.285-105.516 0-58.33-47.455-105.785-105.785-105.785s-105.785,47.457-105.785,105.787c0,55.808 43.442,101.655 98.285,105.516v59.669c0,39.718 32.313,72.03 72.03,72.03 39.717,0 72.03-32.141 72.03-71.647v-199.706c0-31.235 25.583-56.648 57.03-56.648zm-284.375,90.786c0-50.06 40.726-90.785 90.785-90.785 50.059,0 90.785,40.726 90.785,90.785s-40.726,90.785-90.785,90.785c-50.059,0-90.785-40.726-90.785-90.785z"/>
    <path d="m105.761,127.518c-3.113,0-5.646-2.533-5.646-5.646 0-4.143-3.358-7.5-7.5-7.5s-7.5,3.357-7.5,7.5c0,8.737 5.463,16.205 13.146,19.215v3.216c0,4.142 3.356,7.5 7.499,7.501 4.143,0 7.5-3.357 7.501-7.499v-3.217c7.683-3.01 13.147-10.478 13.147-19.216 0-14.463-11.777-19.988-17.437-22.644-6.915-3.244-8.808-5.192-8.808-9.063 0-3.113 2.533-5.646 5.646-5.646s5.646,2.533 5.646,5.646c0,4.143 3.358,7.5 7.5,7.5s7.5-3.357 7.5-7.5c0-8.737-5.463-16.205-13.146-19.215v-3.215c0-4.143-3.357-7.501-7.499-7.501-4.143,0-7.5,3.357-7.501,7.499v3.217c-7.683,3.01-13.147,10.478-13.147,19.216 0,14.462 11.777,19.988 17.437,22.644 6.915,3.244 8.808,5.192 8.808,9.063-1.42109e-14,3.111-2.533,5.645-5.646,5.645z"/>
    <path d="m181.57,106.018c0-41.788-33.997-75.785-75.785-75.785-17.287,0-34.207,6-47.642,16.896-13.23,10.727-22.563,25.729-26.28,42.241-0.91,4.041 1.629,8.055 5.67,8.964 4.042,0.913 8.055-1.628 8.964-5.669 6.187-27.484 31.121-47.433 59.288-47.433 33.517,0 60.785,27.269 60.785,60.785s-27.268,60.785-60.785,60.785c-28.167,0-53.101-19.948-59.288-47.433-0.91-4.041-4.925-6.582-8.964-5.669-4.041,0.909-6.58,4.923-5.67,8.964 3.717,16.512 13.05,31.514 26.279,42.242 13.435,10.896 30.355,16.896 47.642,16.896 41.789,0.001 75.786-33.996 75.786-75.784z"/>
    <path d="m371.405,291.232v-26.075c11.146-3.253 19.315-13.557 19.315-25.74v-35.598c0-12.183-8.169-22.487-19.315-25.74v-13.347c0-4.143-3.358-7.5-7.5-7.5s-7.5,3.357-7.5,7.5v13.347c-11.146,3.253-19.315,13.557-19.315,25.74v35.598c0,12.183 8.169,22.487 19.315,25.74v26.075h-61.56c-4.142,0-7.5,3.357-7.5,7.5s3.358,7.5 7.5,7.5h138.12c4.142,0 7.5-3.357 7.5-7.5s-3.358-7.5-7.5-7.5h-61.56zm-19.316-51.815v-35.598c0-6.515 5.3-11.815 11.815-11.815s11.815,5.301 11.815,11.815v35.598c0,6.515-5.3,11.815-11.815,11.815s-11.815-5.3-11.815-11.815z"/>
  </g>
</svg>
