<?xml version='1.0' encoding='iso-8859-1'?>
<svg version="1.1" xmlns="http://www.w3.org/2000/svg" viewBox="0 0 470 470" xmlns:xlink="http://www.w3.org/1999/xlink" enable-background="new 0 0 470 470">
  <g>
    <path d="m462.5,22.5h-455c-4.142,0-7.5,3.357-7.5,7.5v410c0,4.143 3.358,7.5 7.5,7.5h455c4.142,0 7.5-3.357 7.5-7.5v-80c0-4.143-3.358-7.5-7.5-7.5s-7.5,3.357-7.5,7.5v72.5h-440v-335h440v232.5c0,4.143 3.358,7.5 7.5,7.5s7.5-3.357 7.5-7.5v-300c0-4.143-3.358-7.5-7.5-7.5zm-447.5,15h277.5v45h-277.5v-45zm292.5,45v-45h147.5v45h-147.5z"/>
    <path d="m381.5,52c-4.411,0-8,3.589-8,8s3.589,8 8,8 8-3.589 8-8-3.589-8-8-8z"/>
    <path d="m340.5,52c-4.411,0-8,3.589-8,8s3.589,8 8,8 8-3.589 8-8-3.589-8-8-8z"/>
    <path d="m422.5,52c-4.411,0-8,3.589-8,8s3.589,8 8,8 8-3.589 8-8-3.589-8-8-8z"/>
    <path d="m317.875,202.985c-3.317,2.48-3.995,7.181-1.514,10.498 2.481,3.318 7.181,3.995 10.498,1.514 27.075-20.25 42.603-51.23 42.603-84.997 0-4.143-3.358-7.5-7.5-7.5h-195.055c-0.063,0.001-0.124-0.002-0.187,0h-58.681c-4.142,0-7.5,3.357-7.5,7.5 0,45.874 29.817,86.681 73.065,100.833 5.843,25.889 27.663,45.446 53.897,48.617v38.873h-54.423c-4.142,0-7.5,3.357-7.5,7.5v74.177c0,4.143 3.358,7.5 7.5,7.5h123.846c4.142,0 7.5-3.357 7.5-7.5v-74.176c0-4.143-3.358-7.5-7.5-7.5h-54.424v-38.873c27.964-3.38 50.924-25.376 54.85-53.814l12.176-88.137h44.636c-2.094,26.046-15.057,49.606-36.287,65.485zm-28.452,189.515h-108.846v-59.176h108.846v59.176zm-173.574-255h44.626l10.546,76.345c-30.898-13.14-52.376-42.643-55.172-76.345zm166.642,86.084c-3.253,23.564-23.67,41.334-47.491,41.334-23.821,0-44.238-17.77-47.491-41.334l-11.892-86.084h15.142l3.304,23.922c0.519,3.755 3.733,6.475 7.42,6.475 0.342,0 0.688-0.023 1.036-0.071 4.103-0.567 6.97-4.353 6.403-8.456l-3.021-21.869h88.482l-11.892,86.083z"/>
    <path d="m204.572,182.68c-4.103,0.567-6.97,4.353-6.403,8.456l4.199,30.396c2.235,16.183 16.264,28.387 32.633,28.387 4.142,0 7.5-3.357 7.5-7.5s-3.358-7.5-7.5-7.5c-8.917,0-16.558-6.638-17.774-15.439l-4.199-30.396c-0.567-4.105-4.353-6.973-8.456-6.404z"/>
    <path d="m202.252,362.5c0,4.143 3.358,7.5 7.5,7.5h50.495c4.142,0 7.5-3.357 7.5-7.5s-3.358-7.5-7.5-7.5h-50.495c-4.142,0-7.5,3.357-7.5,7.5z"/>
  </g>
</svg>
