<?xml version='1.0' encoding='iso-8859-1'?>
<svg version="1.1" xmlns="http://www.w3.org/2000/svg" viewBox="0 0 470 470" xmlns:xlink="http://www.w3.org/1999/xlink" enable-background="new 0 0 470 470">
  <g>
    <path d="M467.803,428.913L345.438,306.547c-2.929-2.929-7.678-2.929-10.606,0l-8.839,8.839l-17.796-17.796   C338.43,264.754,355,222.403,355,177.5c0-47.412-18.463-91.986-51.989-125.511S224.912,0,177.5,0S85.514,18.463,51.989,51.989   S0,130.088,0,177.5s18.463,91.986,51.989,125.511S130.088,355,177.5,355c44.903,0,87.254-16.57,120.091-46.803l17.796,17.796   l-8.839,8.839c-2.929,2.929-2.929,7.678,0,10.606l122.365,122.365c1.464,1.464,3.384,2.197,5.303,2.197s3.839-0.732,5.303-2.197   l28.284-28.284C470.732,436.59,470.732,431.841,467.803,428.913z M62.595,292.405C31.903,261.712,15,220.905,15,177.5   S31.903,93.288,62.595,62.595S134.095,15,177.5,15s84.212,16.903,114.905,47.595S340,134.095,340,177.5   s-16.903,84.212-47.595,114.905S220.905,340,177.5,340S93.288,323.097,62.595,292.405z M434.216,451.894L322.457,340.135   l17.678-17.678l111.759,111.759L434.216,451.894z"/>
    <path d="m177.5,80c-53.762,0-97.5,43.738-97.5,97.5s43.738,97.5 97.5,97.5 97.5-43.738 97.5-97.5-43.738-97.5-97.5-97.5zm82.144,90h-29.79c-1.077-27.491-8.037-51.476-18.617-67.758 26.542,11.946 45.667,37.515 48.407,67.758zm-89.644-73.111v73.111h-29.832c0.853-20.043 5.111-38.567 12.221-52.786 5.077-10.155 11.24-17.173 17.611-20.325zm0,88.111v73.111c-6.371-3.152-12.534-10.169-17.611-20.325-7.109-14.218-11.367-32.743-12.221-52.786h29.832zm15,73.111v-73.111h29.832c-0.853,20.043-5.111,38.567-12.22,52.786-5.078,10.155-11.241,17.173-17.612,20.325zm0-88.111v-73.111c6.371,3.152 12.534,10.169 17.612,20.325 7.109,14.218 11.367,32.743 12.22,52.786h-29.832zm-41.236-67.758c-10.581,16.282-17.541,40.266-18.617,67.758h-29.79c2.739-30.243 21.864-55.812 48.407-67.758zm-48.408,82.758h29.79c1.077,27.491 8.037,51.476 18.617,67.758-26.542-11.946-45.667-37.515-48.407-67.758zm115.88,67.758c10.581-16.282 17.541-40.266 18.617-67.758h29.79c-2.739,30.243-21.864,55.812-48.407,67.758z"/>
    <path d="m285.292,92.132c-2.576-3.244-7.292-3.786-10.537-1.211-3.244,2.575-3.786,7.293-1.211,10.537 38.661,48.7 34.61,118.629-9.423,162.662-47.763,47.763-125.479,47.763-173.241,0s-47.763-125.479 0-173.241c44.033-44.034 113.962-48.083 162.662-9.423 3.243,2.575 7.961,2.033 10.537-1.211s2.033-7.962-1.211-10.537c-54.672-43.402-133.17-38.86-182.595,10.564-53.611,53.611-53.611,140.843 0,194.454 26.806,26.806 62.016,40.208 97.227,40.208s70.421-13.403 97.227-40.208c49.425-49.424 53.966-127.922 10.565-182.594z"/>
  </g>
</svg>
